<mxfile host="app.diagrams.net" agent="Mozilla/5.0 (Windows NT 10.0; Win64; x64; rv:134.0) Gecko/20100101 Firefox/134.0" version="26.0.10">
  <diagram name="Page-1" id="R919lmfl798pHrnZBZy1">
    <mxGraphModel dx="3086" dy="1342" grid="1" gridSize="10" guides="1" tooltips="1" connect="1" arrows="1" fold="1" page="1" pageScale="1" pageWidth="850" pageHeight="1100" math="0" shadow="0">
      <root>
        <mxCell id="0" />
        <mxCell id="1" parent="0" />
        <mxCell id="rf27hfMmojRUiC2IYDJW-12" value="" style="endArrow=none;html=1;rounded=0;exitX=0.5;exitY=1;exitDx=0;exitDy=0;entryX=0;entryY=0;entryDx=0;entryDy=0;" edge="1" parent="1" source="rf27hfMmojRUiC2IYDJW-45" target="rf27hfMmojRUiC2IYDJW-55">
          <mxGeometry width="50" height="50" relative="1" as="geometry">
            <mxPoint x="-15" y="290" as="sourcePoint" />
            <mxPoint x="120" y="360" as="targetPoint" />
          </mxGeometry>
        </mxCell>
        <mxCell id="rf27hfMmojRUiC2IYDJW-13" value="" style="endArrow=none;html=1;rounded=0;entryX=0.5;entryY=1;entryDx=0;entryDy=0;exitX=0.25;exitY=0;exitDx=0;exitDy=0;" edge="1" parent="1" source="rf27hfMmojRUiC2IYDJW-55" target="rf27hfMmojRUiC2IYDJW-43">
          <mxGeometry width="50" height="50" relative="1" as="geometry">
            <mxPoint x="140" y="360" as="sourcePoint" />
            <mxPoint x="97.5" y="285" as="targetPoint" />
          </mxGeometry>
        </mxCell>
        <mxCell id="rf27hfMmojRUiC2IYDJW-14" value="" style="endArrow=none;html=1;rounded=0;entryX=0.5;entryY=1;entryDx=0;entryDy=0;exitX=0.5;exitY=0;exitDx=0;exitDy=0;" edge="1" parent="1" source="rf27hfMmojRUiC2IYDJW-55" target="rf27hfMmojRUiC2IYDJW-48">
          <mxGeometry width="50" height="50" relative="1" as="geometry">
            <mxPoint x="160" y="360" as="sourcePoint" />
            <mxPoint x="207.5" y="285" as="targetPoint" />
          </mxGeometry>
        </mxCell>
        <mxCell id="rf27hfMmojRUiC2IYDJW-15" value="" style="endArrow=none;html=1;rounded=0;entryX=0.5;entryY=1;entryDx=0;entryDy=0;exitX=0.75;exitY=0;exitDx=0;exitDy=0;" edge="1" parent="1" source="rf27hfMmojRUiC2IYDJW-55" target="rf27hfMmojRUiC2IYDJW-49">
          <mxGeometry width="50" height="50" relative="1" as="geometry">
            <mxPoint x="180" y="360" as="sourcePoint" />
            <mxPoint x="310" y="280" as="targetPoint" />
          </mxGeometry>
        </mxCell>
        <mxCell id="rf27hfMmojRUiC2IYDJW-22" value="" style="endArrow=none;html=1;rounded=0;entryX=0.5;entryY=1;entryDx=0;entryDy=0;exitX=0;exitY=0;exitDx=0;exitDy=0;" edge="1" parent="1" source="rf27hfMmojRUiC2IYDJW-54" target="rf27hfMmojRUiC2IYDJW-53">
          <mxGeometry width="50" height="50" relative="1" as="geometry">
            <mxPoint x="675" y="355" as="sourcePoint" />
            <mxPoint x="567.5" y="285" as="targetPoint" />
          </mxGeometry>
        </mxCell>
        <mxCell id="rf27hfMmojRUiC2IYDJW-23" value="" style="endArrow=none;html=1;rounded=0;entryX=0.5;entryY=1;entryDx=0;entryDy=0;exitX=0.25;exitY=0;exitDx=0;exitDy=0;" edge="1" parent="1" source="rf27hfMmojRUiC2IYDJW-54" target="rf27hfMmojRUiC2IYDJW-50">
          <mxGeometry width="50" height="50" relative="1" as="geometry">
            <mxPoint x="700" y="355" as="sourcePoint" />
            <mxPoint x="670" y="290" as="targetPoint" />
          </mxGeometry>
        </mxCell>
        <mxCell id="rf27hfMmojRUiC2IYDJW-24" value="" style="endArrow=none;html=1;rounded=0;entryX=0.5;entryY=1;entryDx=0;entryDy=0;exitX=0.553;exitY=0.002;exitDx=0;exitDy=0;exitPerimeter=0;" edge="1" parent="1" source="rf27hfMmojRUiC2IYDJW-54" target="rf27hfMmojRUiC2IYDJW-51">
          <mxGeometry width="50" height="50" relative="1" as="geometry">
            <mxPoint x="725" y="355" as="sourcePoint" />
            <mxPoint x="777.5" y="285" as="targetPoint" />
          </mxGeometry>
        </mxCell>
        <mxCell id="rf27hfMmojRUiC2IYDJW-25" value="" style="endArrow=none;html=1;rounded=0;entryX=0.5;entryY=1;entryDx=0;entryDy=0;exitX=1;exitY=0;exitDx=0;exitDy=0;" edge="1" parent="1" source="rf27hfMmojRUiC2IYDJW-54" target="rf27hfMmojRUiC2IYDJW-52">
          <mxGeometry width="50" height="50" relative="1" as="geometry">
            <mxPoint x="775" y="355" as="sourcePoint" />
            <mxPoint x="892.5" y="295" as="targetPoint" />
          </mxGeometry>
        </mxCell>
        <mxCell id="rf27hfMmojRUiC2IYDJW-33" value="" style="endArrow=none;html=1;rounded=0;entryX=0.5;entryY=1;entryDx=0;entryDy=0;exitX=0;exitY=0;exitDx=0;exitDy=0;" edge="1" parent="1" source="rf27hfMmojRUiC2IYDJW-56" target="rf27hfMmojRUiC2IYDJW-57">
          <mxGeometry width="50" height="50" relative="1" as="geometry">
            <mxPoint x="1330" y="355" as="sourcePoint" />
            <mxPoint x="1070" y="305" as="targetPoint" />
          </mxGeometry>
        </mxCell>
        <mxCell id="rf27hfMmojRUiC2IYDJW-34" value="" style="endArrow=none;html=1;rounded=0;entryX=0.5;entryY=1;entryDx=0;entryDy=0;exitX=0.25;exitY=0;exitDx=0;exitDy=0;" edge="1" parent="1" source="rf27hfMmojRUiC2IYDJW-56" target="rf27hfMmojRUiC2IYDJW-58">
          <mxGeometry width="50" height="50" relative="1" as="geometry">
            <mxPoint x="1355" y="355" as="sourcePoint" />
            <mxPoint x="1192.5" y="285" as="targetPoint" />
          </mxGeometry>
        </mxCell>
        <mxCell id="rf27hfMmojRUiC2IYDJW-35" value="" style="endArrow=none;html=1;rounded=0;entryX=0.5;entryY=1;entryDx=0;entryDy=0;exitX=0.45;exitY=0.007;exitDx=0;exitDy=0;exitPerimeter=0;" edge="1" parent="1" source="rf27hfMmojRUiC2IYDJW-56" target="rf27hfMmojRUiC2IYDJW-59">
          <mxGeometry width="50" height="50" relative="1" as="geometry">
            <mxPoint x="1374" y="354" as="sourcePoint" />
            <mxPoint x="1312.5" y="295" as="targetPoint" />
          </mxGeometry>
        </mxCell>
        <mxCell id="rf27hfMmojRUiC2IYDJW-36" value="" style="endArrow=none;html=1;rounded=0;entryX=0.5;entryY=1;entryDx=0;entryDy=0;exitX=0.593;exitY=0.007;exitDx=0;exitDy=0;exitPerimeter=0;" edge="1" parent="1" source="rf27hfMmojRUiC2IYDJW-56" target="rf27hfMmojRUiC2IYDJW-60">
          <mxGeometry width="50" height="50" relative="1" as="geometry">
            <mxPoint x="1391" y="355" as="sourcePoint" />
            <mxPoint x="1460" y="300" as="targetPoint" />
          </mxGeometry>
        </mxCell>
        <mxCell id="rf27hfMmojRUiC2IYDJW-37" value="" style="endArrow=none;html=1;rounded=0;entryX=0.447;entryY=1.025;entryDx=0;entryDy=0;exitX=0.844;exitY=0.007;exitDx=0;exitDy=0;exitPerimeter=0;entryPerimeter=0;" edge="1" parent="1" source="rf27hfMmojRUiC2IYDJW-56" target="rf27hfMmojRUiC2IYDJW-61">
          <mxGeometry width="50" height="50" relative="1" as="geometry">
            <mxPoint x="1405" y="355" as="sourcePoint" />
            <mxPoint x="1597.5" y="285" as="targetPoint" />
          </mxGeometry>
        </mxCell>
        <mxCell id="rf27hfMmojRUiC2IYDJW-38" value="" style="endArrow=none;html=1;rounded=0;entryX=0.5;entryY=1;entryDx=0;entryDy=0;exitX=1;exitY=0;exitDx=0;exitDy=0;" edge="1" parent="1" source="rf27hfMmojRUiC2IYDJW-56" target="rf27hfMmojRUiC2IYDJW-62">
          <mxGeometry width="50" height="50" relative="1" as="geometry">
            <mxPoint x="1430" y="355" as="sourcePoint" />
            <mxPoint x="1717.5" y="282.5" as="targetPoint" />
          </mxGeometry>
        </mxCell>
        <mxCell id="rf27hfMmojRUiC2IYDJW-40" value="" style="endArrow=none;html=1;rounded=0;entryX=0.5;entryY=1;entryDx=0;entryDy=0;exitX=1;exitY=0;exitDx=0;exitDy=0;" edge="1" parent="1" source="rf27hfMmojRUiC2IYDJW-55" target="rf27hfMmojRUiC2IYDJW-42">
          <mxGeometry width="50" height="50" relative="1" as="geometry">
            <mxPoint x="200" y="360" as="sourcePoint" />
            <mxPoint x="425" y="305" as="targetPoint" />
          </mxGeometry>
        </mxCell>
        <mxCell id="rf27hfMmojRUiC2IYDJW-42" value="phone_number" style="ellipse;shape=doubleEllipse;margin=3;whiteSpace=wrap;html=1;align=center;" vertex="1" parent="1">
          <mxGeometry x="390" y="240" width="100" height="40" as="geometry" />
        </mxCell>
        <mxCell id="rf27hfMmojRUiC2IYDJW-43" value="first_name" style="ellipse;whiteSpace=wrap;html=1;align=center;" vertex="1" parent="1">
          <mxGeometry x="50" y="240" width="100" height="40" as="geometry" />
        </mxCell>
        <mxCell id="rf27hfMmojRUiC2IYDJW-45" value="customer_ide" style="ellipse;whiteSpace=wrap;html=1;align=center;fontStyle=4;" vertex="1" parent="1">
          <mxGeometry x="-70" y="240" width="100" height="40" as="geometry" />
        </mxCell>
        <mxCell id="rf27hfMmojRUiC2IYDJW-46" value="has" style="shape=rhombus;perimeter=rhombusPerimeter;whiteSpace=wrap;html=1;align=center;" vertex="1" parent="1">
          <mxGeometry x="380" y="350" width="120" height="60" as="geometry" />
        </mxCell>
        <mxCell id="rf27hfMmojRUiC2IYDJW-48" value="last_name" style="ellipse;whiteSpace=wrap;html=1;align=center;" vertex="1" parent="1">
          <mxGeometry x="160" y="240" width="100" height="40" as="geometry" />
        </mxCell>
        <mxCell id="rf27hfMmojRUiC2IYDJW-49" value="email" style="ellipse;whiteSpace=wrap;html=1;align=center;" vertex="1" parent="1">
          <mxGeometry x="280" y="240" width="100" height="40" as="geometry" />
        </mxCell>
        <mxCell id="rf27hfMmojRUiC2IYDJW-50" value="customer_id" style="ellipse;whiteSpace=wrap;html=1;align=center;" vertex="1" parent="1">
          <mxGeometry x="620" y="240" width="100" height="40" as="geometry" />
        </mxCell>
        <mxCell id="rf27hfMmojRUiC2IYDJW-51" value="account_type" style="ellipse;whiteSpace=wrap;html=1;align=center;" vertex="1" parent="1">
          <mxGeometry x="730" y="240" width="100" height="40" as="geometry" />
        </mxCell>
        <mxCell id="rf27hfMmojRUiC2IYDJW-52" value="account_balance" style="ellipse;whiteSpace=wrap;html=1;align=center;" vertex="1" parent="1">
          <mxGeometry x="850" y="240" width="100" height="40" as="geometry" />
        </mxCell>
        <mxCell id="rf27hfMmojRUiC2IYDJW-53" value="account_id" style="ellipse;whiteSpace=wrap;html=1;align=center;fontStyle=4;" vertex="1" parent="1">
          <mxGeometry x="510" y="242.5" width="100" height="40" as="geometry" />
        </mxCell>
        <mxCell id="rf27hfMmojRUiC2IYDJW-54" value="Accounts" style="shape=ext;margin=3;double=1;whiteSpace=wrap;html=1;align=center;" vertex="1" parent="1">
          <mxGeometry x="670" y="360" width="100" height="40" as="geometry" />
        </mxCell>
        <mxCell id="rf27hfMmojRUiC2IYDJW-55" value="Customer" style="whiteSpace=wrap;html=1;align=center;" vertex="1" parent="1">
          <mxGeometry x="110" y="360" width="100" height="40" as="geometry" />
        </mxCell>
        <mxCell id="rf27hfMmojRUiC2IYDJW-56" value="Transactions" style="shape=ext;margin=3;double=1;whiteSpace=wrap;html=1;align=center;" vertex="1" parent="1">
          <mxGeometry x="1320" y="360" width="100" height="40" as="geometry" />
        </mxCell>
        <mxCell id="rf27hfMmojRUiC2IYDJW-57" value="transaction_id" style="ellipse;whiteSpace=wrap;html=1;align=center;fontStyle=4;" vertex="1" parent="1">
          <mxGeometry x="1030" y="240" width="100" height="40" as="geometry" />
        </mxCell>
        <mxCell id="rf27hfMmojRUiC2IYDJW-58" value="account_id" style="ellipse;whiteSpace=wrap;html=1;align=center;" vertex="1" parent="1">
          <mxGeometry x="1150" y="242.5" width="100" height="40" as="geometry" />
        </mxCell>
        <mxCell id="rf27hfMmojRUiC2IYDJW-59" value="transaction_date" style="ellipse;whiteSpace=wrap;html=1;align=center;" vertex="1" parent="1">
          <mxGeometry x="1275" y="242.5" width="100" height="40" as="geometry" />
        </mxCell>
        <mxCell id="rf27hfMmojRUiC2IYDJW-60" value="transaction_amount" style="ellipse;whiteSpace=wrap;html=1;align=center;" vertex="1" parent="1">
          <mxGeometry x="1400" y="245" width="130" height="40" as="geometry" />
        </mxCell>
        <mxCell id="rf27hfMmojRUiC2IYDJW-61" value="sender_id" style="ellipse;whiteSpace=wrap;html=1;align=center;" vertex="1" parent="1">
          <mxGeometry x="1560" y="245" width="100" height="40" as="geometry" />
        </mxCell>
        <mxCell id="rf27hfMmojRUiC2IYDJW-62" value="reciever_id" style="ellipse;whiteSpace=wrap;html=1;align=center;" vertex="1" parent="1">
          <mxGeometry x="1680" y="245" width="100" height="40" as="geometry" />
        </mxCell>
        <mxCell id="rf27hfMmojRUiC2IYDJW-63" value="have" style="shape=rhombus;perimeter=rhombusPerimeter;whiteSpace=wrap;html=1;align=center;" vertex="1" parent="1">
          <mxGeometry x="960" y="350" width="120" height="60" as="geometry" />
        </mxCell>
        <mxCell id="rf27hfMmojRUiC2IYDJW-67" value="" style="endArrow=none;html=1;rounded=0;dashed=1;dashPattern=1 2;exitX=1;exitY=0.5;exitDx=0;exitDy=0;entryX=0;entryY=0.5;entryDx=0;entryDy=0;" edge="1" parent="1" source="rf27hfMmojRUiC2IYDJW-54" target="rf27hfMmojRUiC2IYDJW-63">
          <mxGeometry relative="1" as="geometry">
            <mxPoint x="860" y="500" as="sourcePoint" />
            <mxPoint x="930" y="400" as="targetPoint" />
          </mxGeometry>
        </mxCell>
        <mxCell id="rf27hfMmojRUiC2IYDJW-68" value="N" style="resizable=0;html=1;whiteSpace=wrap;align=right;verticalAlign=bottom;" connectable="0" vertex="1" parent="rf27hfMmojRUiC2IYDJW-67">
          <mxGeometry x="1" relative="1" as="geometry" />
        </mxCell>
        <mxCell id="rf27hfMmojRUiC2IYDJW-87" value="" style="endArrow=none;html=1;rounded=0;exitX=1;exitY=0.5;exitDx=0;exitDy=0;entryX=0;entryY=0.5;entryDx=0;entryDy=0;" edge="1" parent="1" source="rf27hfMmojRUiC2IYDJW-55" target="rf27hfMmojRUiC2IYDJW-46">
          <mxGeometry relative="1" as="geometry">
            <mxPoint x="840" y="510" as="sourcePoint" />
            <mxPoint x="1000" y="510" as="targetPoint" />
          </mxGeometry>
        </mxCell>
        <mxCell id="rf27hfMmojRUiC2IYDJW-88" value="N" style="resizable=0;html=1;whiteSpace=wrap;align=right;verticalAlign=bottom;" connectable="0" vertex="1" parent="rf27hfMmojRUiC2IYDJW-87">
          <mxGeometry x="1" relative="1" as="geometry" />
        </mxCell>
        <mxCell id="rf27hfMmojRUiC2IYDJW-89" value="" style="endArrow=none;html=1;rounded=0;exitX=1;exitY=0.5;exitDx=0;exitDy=0;entryX=0;entryY=0.5;entryDx=0;entryDy=0;" edge="1" parent="1" source="rf27hfMmojRUiC2IYDJW-46" target="rf27hfMmojRUiC2IYDJW-54">
          <mxGeometry relative="1" as="geometry">
            <mxPoint x="425" y="460" as="sourcePoint" />
            <mxPoint x="595" y="460" as="targetPoint" />
          </mxGeometry>
        </mxCell>
        <mxCell id="rf27hfMmojRUiC2IYDJW-90" value="N" style="resizable=0;html=1;whiteSpace=wrap;align=right;verticalAlign=bottom;" connectable="0" vertex="1" parent="rf27hfMmojRUiC2IYDJW-89">
          <mxGeometry x="1" relative="1" as="geometry" />
        </mxCell>
        <mxCell id="rf27hfMmojRUiC2IYDJW-91" value="" style="endArrow=none;html=1;rounded=0;entryX=0;entryY=0.5;entryDx=0;entryDy=0;exitX=1;exitY=0.5;exitDx=0;exitDy=0;" edge="1" parent="1" source="rf27hfMmojRUiC2IYDJW-63" target="rf27hfMmojRUiC2IYDJW-56">
          <mxGeometry relative="1" as="geometry">
            <mxPoint x="840" y="510" as="sourcePoint" />
            <mxPoint x="1000" y="510" as="targetPoint" />
          </mxGeometry>
        </mxCell>
        <mxCell id="rf27hfMmojRUiC2IYDJW-92" value="N" style="resizable=0;html=1;whiteSpace=wrap;align=right;verticalAlign=bottom;" connectable="0" vertex="1" parent="rf27hfMmojRUiC2IYDJW-91">
          <mxGeometry x="1" relative="1" as="geometry" />
        </mxCell>
      </root>
    </mxGraphModel>
  </diagram>
</mxfile>
